<svg version="1.1" xmlns="http://www.w3.org/2000/svg" width="32" height="32" viewBox="0 0 32 32">
<path fill="#01c61e" d="M24.565 12.067c0 1.114-0.903 2.017-2.017 2.017s-2.017-0.903-2.017-2.017c0-1.114 0.903-2.017 2.017-2.017s2.017 0.903 2.017 2.017z"></path>
<path fill="#01c61e" d="M11.48 12.067c0 1.114-0.903 2.017-2.017 2.017s-2.017-0.903-2.017-2.017c0-1.114 0.903-2.017 2.017-2.017s2.017 0.903 2.017 2.017z"></path>
<path fill="none" stroke="#01c61e" stroke-width="1.6" stroke-miterlimit="10" stroke-linecap="butt" stroke-linejoin="miter" d="M30.912 15.995c0 8.247-6.686 14.932-14.932 14.932s-14.932-6.686-14.932-14.932c0-8.247 6.686-14.932 14.932-14.932s14.932 6.686 14.932 14.932z"></path>
<path fill="none" stroke="#01c61e" stroke-width="1.536" stroke-miterlimit="10" stroke-linecap="round" stroke-linejoin="miter" d="M8.419 20.713c5.047 4.111 10.109 4.087 15.185 0"></path>
</svg>