<svg version="1.1" baseProfile="tiny" id="oxyplug_proscons" xmlns="http://www.w3.org/2000/svg" xmlns:xlink="http://www.w3.org/1999/xlink" x="0px" y="0px" viewBox="0 0 20 34" xml:space="preserve">
<g>
	<path fill="none" stroke="black" stroke-width="0.5" stroke-miterlimit="10" d="M12.5,12.4h-0.8c-0.6,0-1.1,0.5-1.1,1.1v8.7
		c0,0.6,0.5,1.1,1.1,1.1h6.5c0.6,0,1.1-0.5,1.1-1.1v-8.7c0-0.6-0.5-1.1-1.1-1.1h-0.8"/>
	<path fill="none" stroke="black" stroke-width="0.5" stroke-miterlimit="10" d="M2.5,12.4H1.7c-0.6,0-1.1,0.5-1.1,1.1v8.7
		c0,0.6,0.5,1.1,1.1,1.1h6.5c0.6,0,1.1-0.5,1.1-1.1v-8.7c0-0.6-0.5-1.1-1.1-1.1H7.4"/>
  <line fill="none" stroke="black" stroke-width="0.5" stroke-miterlimit="10" x1="12.3" y1="16.1" x2="17.5" y2="16.1"/>
  <line fill="none" stroke="black" stroke-width="0.5" stroke-miterlimit="10" x1="12.3" y1="17.6" x2="17.5" y2="17.6"/>
	<line fill="none" stroke="black" stroke-width="0.5" stroke-miterlimit="10" x1="12.3" y1="18.9" x2="17.5" y2="18.9"/>
  <line fill="none" stroke="black" stroke-width="0.5" stroke-miterlimit="10" x1="12.3" y1="20.4" x2="17.5" y2="20.4"/>
	<line fill="none" stroke="black" stroke-width="0.5" stroke-miterlimit="10" x1="2.4" y1="16.2" x2="7.5" y2="16.2"/>
  <line fill="none" stroke="black" stroke-width="0.5" stroke-miterlimit="10" x1="2.4" y1="17.7" x2="7.5" y2="17.7"/>
	<line fill="none" stroke="black" stroke-width="0.5" stroke-miterlimit="10" x1="2.4" y1="19" x2="7.5" y2="19"/>
	<line fill="none" stroke="black" stroke-width="0.5" stroke-miterlimit="10" x1="2.4" y1="20.5" x2="7.5" y2="20.5"/>
</g>
<g>
	<circle fill="none" stroke="black" stroke-width="0.5" stroke-miterlimit="10" cx="15" cy="11.9" r="2.6"/>
	<polyline fill="none" stroke="black" stroke-width="0.5" stroke-miterlimit="10" points="13.5,12 14.3,12.9 16.4,10.9 	"/>
</g>
<g>
  <circle fill="none" stroke="black" stroke-width="0.5" stroke-miterlimit="10" cx="5" cy="11.9" r="2.6"/>
	<line fill="none" stroke="black" stroke-width="0.5" stroke-miterlimit="10" x1="3.7" y1="10.8" x2="6.2" y2="13.1"/>
	<line fill="none" stroke="black" stroke-width="0.5" stroke-miterlimit="10" x1="6.2" y1="10.8" x2="3.7" y2="13.1"/>
</g>
</svg>